<?xml version="1.0" encoding="UTF-8"?>
<!DOCTYPE svg PUBLIC "-//W3C//DTD SVG 1.1//EN" "http://www.w3.org/Graphics/SVG/1.1/DTD/svg11.dtd">
<svg xmlns="http://www.w3.org/2000/svg" version="1.1" width="92px" height="64px" style="shape-rendering:geometricPrecision; text-rendering:geometricPrecision; image-rendering:optimizeQuality; fill-rule:evenodd; clip-rule:evenodd" xmlns:xlink="http://www.w3.org/1999/xlink">
<g><path style="opacity:0.855" fill="#fefffe" d="M 26.5,-0.5 C 29.5,-0.5 32.5,-0.5 35.5,-0.5C 37.6503,1.75958 39.8169,4.09291 42,6.5C 41.253,9.44474 39.4196,11.7781 36.5,13.5C 34.6841,12.1851 33.0175,10.6851 31.5,9C 30.8333,8.33333 30.1667,8.33333 29.5,9C 22.6834,16.6506 15.6834,24.1506 8.5,31.5C 15.861,39.1931 23.1943,46.8598 30.5,54.5C 40.5075,44.9924 50.3408,35.3257 60,25.5C 62.6312,26.9633 64.7979,28.9633 66.5,31.5C 56.1179,42.214 45.7845,52.8806 35.5,63.5C 32.5,63.5 29.5,63.5 26.5,63.5C 17.1667,54.8333 8.16667,45.8333 -0.5,36.5C -0.5,33.1667 -0.5,29.8333 -0.5,26.5C 8.16667,17.1667 17.1667,8.16667 26.5,-0.5 Z"/></g>
<g><path style="opacity:0.854" fill="#fefffe" d="M 55.5,-0.5 C 58.5,-0.5 61.5,-0.5 64.5,-0.5C 73.8333,8.16667 82.8333,17.1667 91.5,26.5C 91.5,29.8333 91.5,33.1667 91.5,36.5C 82.8333,45.8333 73.8333,54.8333 64.5,63.5C 61.5,63.5 58.5,63.5 55.5,63.5C 53.066,60.5624 50.3993,57.7291 47.5,55C 49.3848,52.7776 51.5515,50.9443 54,49.5C 56.1124,50.608 57.9458,52.108 59.5,54C 60.1667,54.6667 60.8333,54.6667 61.5,54C 68.3166,46.3494 75.3166,38.8494 82.5,31.5C 75.139,23.8069 67.8057,16.1402 60.5,8.5C 50.6808,17.819 41.0141,27.319 31.5,37C 28.5553,36.253 26.2219,34.4196 24.5,31.5C 34.8821,20.786 45.2155,10.1194 55.5,-0.5 Z"/></g>
</svg>
